<svg xmlns="http://www.w3.org/2000/svg" viewBox="-4885 76 276 34.302"><defs><style>.a{fill:#fff;}</style></defs><path class="a" d="M0,34.3V30.424H21.958V34.3ZM169.708,23.6l4.589-3.168A5.507,5.507,0,0,0,179.43,24.2c1.311,0,3.6-.6,3.6-3.168,0-2.075-1.092-2.513-5.134-4.151-4.1-1.638-7.647-3.5-7.647-8.958,0-4.643,3.223-7.92,8.794-7.92,3.987,0,6.773,1.693,9.013,5.025l-4.479,3a5.421,5.421,0,0,0-4.7-3.113c-3.113,0-3.168,2.4-3.168,2.676,0,1.966,1.748,2.786,3.441,3.387L182.6,12.29a9.8,9.8,0,0,1,4.588,3.277,8.569,8.569,0,0,1,1.529,4.861,8.123,8.123,0,0,1-3.824,7.374,10.953,10.953,0,0,1-5.189,1.42C174.951,29.222,172.165,28.021,169.708,23.6Zm43.7-.218a21.008,21.008,0,0,1-.71-5.626V10.378c0-2.84.492-5.571,2.348-7.7A8.776,8.776,0,0,1,221.761,0c2.731,0,5.244.655,7.046,2.676,1.475,1.694,2.349,4.151,2.349,8.576v6.719c0,3.878-.6,6.391-2.294,8.3-2.239,2.513-5.462,2.786-7.155,2.786C219.085,29.058,214.77,28.075,213.4,23.378Zm5.244-13.929v9.668h.055c0,2.895.546,5.025,3.168,5.025,3.168,0,3.168-3.059,3.168-5.025V9.449c0-1.912,0-4.26-3.114-4.26C218.648,5.189,218.648,8.357,218.648,9.449ZM119.4,26.71c-2.677-2.513-2.786-5.626-2.786-8.138V.819h5.9V18.68c0,1.638.273,5.353,3.987,5.353,1.147,0,3.878,0,3.878-5.025V.819H136.5V19.008c0,1.638-.055,5.626-2.84,7.92a11.452,11.452,0,0,1-7.1,2.075C123.662,29,121.04,28.294,119.4,26.71ZM53.2,23.323l4.589-3.113a5.529,5.529,0,0,0,5.134,3.714c1.311,0,3.6-.6,3.6-3.114,0-2.075-1.092-2.513-5.134-4.1C57.3,15.13,53.8,13.273,53.8,7.865,53.8,3.332,57.024.109,62.6.109a10.008,10.008,0,0,1,8.958,4.916L67.074,8.139a5.4,5.4,0,0,0-4.7-3.059c-3.113,0-3.168,2.349-3.168,2.622,0,1.912,1.748,2.731,3.441,3.332l3.441,1.257a9.684,9.684,0,0,1,4.589,3.223,8.333,8.333,0,0,1,1.529,4.806,7.855,7.855,0,0,1-3.824,7.21A10.845,10.845,0,0,1,63.2,28.895C58.445,28.895,55.659,27.747,53.2,23.323ZM23.87,28.4V.655h8.9c4.479,0,10.159.6,10.159,8.03,0,3.5-1.365,6.172-5.243,7.374L43.7,28.348H37.143L31.9,17.042H29.878V28.4Zm6.008-15.731c3.441,0,3.933,0,4.807-.328C36.6,11.689,36.76,10.16,36.76,8.63c0-1.912-.6-2.895-1.8-3.332-.929-.328-1.693-.328-5.08-.328ZM270.211,28.348l-1.366-5.517h-8.3l-1.42,5.517h-5.79l7.647-27.8h7.21l7.81,27.8ZM261.58,18.08h6.063l-2.95-12.563h-.164ZM233.505,28.348V.546h6.063V23.159h11.908v5.189Zm-27.966,0-8.794-14.42L204.775.546h6.391l-8.084,12.945,9.449,14.857Zm-14.966,0V.546h5.954v27.8Zm-41.676,0V.546h17.861v5.08H154.687V11.58h8.3V16.6h-8.248v6.554h12.836v5.189Zm-68.386,0V5.79H73.629V.71H93.4V5.79H86.683V28.348Zm-34.685,0V.71h5.954V28.348Zm63.088-.055L107.6,22.831H99.519l-1.365,5.463H92.528L99.956.819h6.992l7.592,27.474ZM100.5,18.134h5.9l-2.84-12.453H103.4ZM15.13,28.294,6.282,14.038,14.365.71h6.5L12.672,13.546l9.286,14.748Zm-15.076,0V.71H6.063V28.294ZM116.561.819h.055Z" transform="translate(-4885 76)"/></svg>